<svg width="800" height="615" viewBox="0 0 800 615" fill="none" xmlns="http://www.w3.org/2000/svg">
<g clip-path="url(#clip0_1_2)" filter="url(#filter0_d_1_2)">
<path d="M319.34 273.392L312.309 266.148L480.633 97.5043L487.664 104.642L319.34 273.392ZM400.413 269.557C388.694 269.557 377.721 267.391 367.494 263.058C357.267 258.655 348.247 252.582 340.434 244.841C332.693 237.028 326.656 228.044 322.323 217.888C318.062 207.661 315.967 196.759 316.038 185.182C315.967 173.534 318.062 162.668 322.323 152.582C326.656 142.426 332.693 133.513 340.434 125.842C348.247 118.101 357.267 112.064 367.494 107.732C377.721 103.399 388.694 101.233 400.413 101.233C411.919 101.233 422.714 103.399 432.799 107.732C442.884 112.064 451.762 118.101 459.433 125.842C467.174 133.513 473.247 142.426 477.65 152.582C482.053 162.668 484.291 173.534 484.362 185.182C484.291 196.759 482.053 207.661 477.65 217.888C473.247 228.044 467.174 237.028 459.433 244.841C451.762 252.582 442.884 258.655 432.799 263.058C422.714 267.391 411.919 269.557 400.413 269.557ZM400.413 256.453C410.143 256.453 419.234 254.607 427.686 250.913C436.208 247.22 443.737 242.107 450.271 235.572C456.805 229.038 461.919 221.474 465.612 212.881C469.305 204.216 471.187 194.983 471.258 185.182C471.187 172.114 467.92 160.217 461.457 149.493C455.065 138.768 446.507 130.21 435.782 123.818C425.129 117.426 413.339 114.266 400.413 114.337C390.541 114.337 381.237 116.183 372.501 119.876C363.836 123.499 356.237 128.577 349.703 135.111C343.169 141.574 338.09 149.102 334.468 157.696C330.846 166.219 329.07 175.381 329.142 185.182C328.999 198.321 332.124 210.288 338.517 221.084C344.909 231.879 353.502 240.473 364.298 246.865C375.164 253.257 387.203 256.453 400.413 256.453Z" fill="#474747"/>
<path d="M158.091 377V330.455H175.545C179.121 330.455 182.121 331.076 184.545 332.318C186.985 333.561 188.826 335.303 190.068 337.545C191.326 339.773 191.955 342.371 191.955 345.341C191.955 348.326 191.318 350.917 190.045 353.114C188.788 355.295 186.932 356.985 184.477 358.182C182.023 359.364 179.008 359.955 175.432 359.955H163V352.955H174.295C176.386 352.955 178.098 352.667 179.432 352.091C180.765 351.5 181.75 350.644 182.386 349.523C183.038 348.386 183.364 346.992 183.364 345.341C183.364 343.689 183.038 342.28 182.386 341.114C181.735 339.932 180.742 339.038 179.409 338.432C178.076 337.811 176.356 337.5 174.25 337.5H166.523V377H158.091ZM182.136 355.909L193.659 377H184.25L172.932 355.909H182.136ZM214.307 377.682C210.807 377.682 207.784 376.955 205.239 375.5C202.708 374.03 200.761 371.955 199.398 369.273C198.034 366.576 197.352 363.402 197.352 359.75C197.352 356.159 198.034 353.008 199.398 350.295C200.777 347.568 202.701 345.447 205.17 343.932C207.64 342.402 210.542 341.636 213.875 341.636C216.027 341.636 218.057 341.985 219.966 342.682C221.89 343.364 223.587 344.424 225.057 345.864C226.542 347.303 227.708 349.136 228.557 351.364C229.405 353.576 229.83 356.212 229.83 359.273V361.795H201.216V356.25H221.943C221.928 354.674 221.587 353.273 220.92 352.045C220.254 350.803 219.322 349.826 218.125 349.114C216.943 348.402 215.564 348.045 213.989 348.045C212.307 348.045 210.83 348.455 209.557 349.273C208.284 350.076 207.292 351.136 206.58 352.455C205.883 353.758 205.527 355.189 205.511 356.75V361.591C205.511 363.621 205.883 365.364 206.625 366.818C207.367 368.258 208.405 369.364 209.739 370.136C211.072 370.894 212.633 371.273 214.42 371.273C215.617 371.273 216.701 371.106 217.67 370.773C218.64 370.424 219.481 369.917 220.193 369.25C220.905 368.583 221.443 367.758 221.807 366.773L229.489 367.636C229.004 369.667 228.08 371.439 226.716 372.955C225.367 374.455 223.64 375.621 221.534 376.455C219.428 377.273 217.019 377.682 214.307 377.682ZM246.835 377.705C244.623 377.705 242.631 377.311 240.858 376.523C239.1 375.72 237.706 374.538 236.676 372.977C235.661 371.417 235.153 369.492 235.153 367.205C235.153 365.235 235.517 363.606 236.244 362.318C236.972 361.03 237.964 360 239.222 359.227C240.479 358.455 241.896 357.871 243.472 357.477C245.063 357.068 246.706 356.773 248.403 356.591C250.449 356.379 252.108 356.189 253.381 356.023C254.653 355.841 255.578 355.568 256.153 355.205C256.744 354.826 257.04 354.242 257.04 353.455V353.318C257.04 351.606 256.532 350.28 255.517 349.341C254.502 348.402 253.04 347.932 251.131 347.932C249.116 347.932 247.517 348.371 246.335 349.25C245.169 350.129 244.381 351.167 243.972 352.364L236.29 351.273C236.896 349.152 237.896 347.379 239.29 345.955C240.684 344.515 242.388 343.439 244.403 342.727C246.419 342 248.646 341.636 251.085 341.636C252.767 341.636 254.441 341.833 256.108 342.227C257.775 342.621 259.297 343.273 260.676 344.182C262.055 345.076 263.161 346.295 263.994 347.841C264.843 349.386 265.267 351.318 265.267 353.636V377H257.358V372.205H257.085C256.585 373.174 255.881 374.083 254.972 374.932C254.078 375.765 252.949 376.439 251.585 376.955C250.237 377.455 248.653 377.705 246.835 377.705ZM248.972 371.659C250.623 371.659 252.055 371.333 253.267 370.682C254.479 370.015 255.411 369.136 256.062 368.045C256.729 366.955 257.062 365.765 257.062 364.477V360.364C256.805 360.576 256.366 360.773 255.744 360.955C255.138 361.136 254.456 361.295 253.699 361.432C252.941 361.568 252.191 361.689 251.449 361.795C250.706 361.902 250.063 361.992 249.517 362.068C248.29 362.235 247.191 362.508 246.222 362.886C245.252 363.265 244.487 363.795 243.926 364.477C243.366 365.144 243.085 366.008 243.085 367.068C243.085 368.583 243.638 369.727 244.744 370.5C245.85 371.273 247.259 371.659 248.972 371.659ZM288.767 377.682C285.282 377.682 282.29 376.917 279.79 375.386C277.305 373.856 275.388 371.742 274.04 369.045C272.706 366.333 272.04 363.212 272.04 359.682C272.04 356.136 272.722 353.008 274.085 350.295C275.449 347.568 277.373 345.447 279.858 343.932C282.358 342.402 285.313 341.636 288.722 341.636C291.555 341.636 294.063 342.159 296.244 343.205C298.441 344.235 300.191 345.697 301.494 347.591C302.797 349.47 303.54 351.667 303.722 354.182H295.858C295.54 352.5 294.782 351.098 293.585 349.977C292.403 348.841 290.82 348.273 288.835 348.273C287.153 348.273 285.676 348.727 284.403 349.636C283.131 350.53 282.138 351.818 281.426 353.5C280.729 355.182 280.381 357.197 280.381 359.545C280.381 361.924 280.729 363.97 281.426 365.682C282.123 367.379 283.1 368.689 284.358 369.614C285.631 370.523 287.123 370.977 288.835 370.977C290.047 370.977 291.131 370.75 292.085 370.295C293.055 369.826 293.866 369.152 294.517 368.273C295.169 367.394 295.616 366.326 295.858 365.068H303.722C303.525 367.538 302.797 369.727 301.54 371.636C300.282 373.53 298.57 375.015 296.403 376.091C294.237 377.152 291.691 377.682 288.767 377.682ZM327.909 342.091V348.455H307.841V342.091H327.909ZM312.795 333.727H321.023V366.5C321.023 367.606 321.189 368.455 321.523 369.045C321.871 369.621 322.326 370.015 322.886 370.227C323.447 370.439 324.068 370.545 324.75 370.545C325.265 370.545 325.735 370.508 326.159 370.432C326.598 370.356 326.932 370.288 327.159 370.227L328.545 376.659C328.106 376.811 327.477 376.977 326.659 377.159C325.856 377.341 324.871 377.447 323.705 377.477C321.644 377.538 319.788 377.227 318.136 376.545C316.485 375.848 315.174 374.773 314.205 373.318C313.25 371.864 312.78 370.045 312.795 367.864V333.727ZM339.858 377.5C338.479 377.5 337.297 377.015 336.312 376.045C335.328 375.076 334.843 373.894 334.858 372.5C334.843 371.136 335.328 369.97 336.312 369C337.297 368.03 338.479 367.545 339.858 367.545C341.191 367.545 342.35 368.03 343.335 369C344.335 369.97 344.843 371.136 344.858 372.5C344.843 373.424 344.6 374.265 344.131 375.023C343.676 375.78 343.07 376.386 342.312 376.841C341.57 377.28 340.752 377.5 339.858 377.5ZM353.716 377V330.455H362.148V369.932H382.648V377H353.716ZM390.852 378.545L388.398 376.091L423.943 340.545L426.398 342.909L390.852 378.545ZM407.489 377.545C404.989 377.545 402.648 377.083 400.466 376.159C398.284 375.22 396.367 373.924 394.716 372.273C393.064 370.621 391.777 368.712 390.852 366.545C389.928 364.364 389.473 362.03 389.489 359.545C389.473 357.076 389.928 354.765 390.852 352.614C391.777 350.447 393.064 348.545 394.716 346.909C396.367 345.258 398.284 343.97 400.466 343.045C402.648 342.106 404.989 341.636 407.489 341.636C409.943 341.636 412.246 342.106 414.398 343.045C416.564 343.97 418.466 345.258 420.102 346.909C421.754 348.545 423.042 350.447 423.966 352.614C424.905 354.765 425.383 357.076 425.398 359.545C425.383 362.03 424.905 364.364 423.966 366.545C423.042 368.712 421.754 370.621 420.102 372.273C418.466 373.924 416.564 375.22 414.398 376.159C412.246 377.083 409.943 377.545 407.489 377.545ZM407.489 369.909C408.883 369.909 410.193 369.644 411.42 369.114C412.663 368.568 413.754 367.826 414.693 366.886C415.648 365.932 416.39 364.826 416.92 363.568C417.466 362.311 417.746 360.97 417.761 359.545C417.746 357.652 417.269 355.932 416.33 354.386C415.405 352.826 414.163 351.583 412.602 350.659C411.057 349.72 409.352 349.258 407.489 349.273C406.034 349.273 404.678 349.538 403.42 350.068C402.163 350.598 401.057 351.333 400.102 352.273C399.148 353.212 398.405 354.311 397.875 355.568C397.36 356.811 397.11 358.136 397.125 359.545C397.11 361.455 397.557 363.197 398.466 364.773C399.39 366.333 400.64 367.583 402.216 368.523C403.792 369.447 405.549 369.909 407.489 369.909ZM440.869 377L431.006 342.091H439.392L445.528 366.636H445.847L452.119 342.091H460.415L466.688 366.5H467.028L473.074 342.091H481.483L471.597 377H463.028L456.483 353.409H456.006L449.46 377H440.869ZM487.591 377V330.455H496.023V369.932H516.523V377H487.591ZM538.932 377.682C535.432 377.682 532.409 376.955 529.864 375.5C527.333 374.03 525.386 371.955 524.023 369.273C522.659 366.576 521.977 363.402 521.977 359.75C521.977 356.159 522.659 353.008 524.023 350.295C525.402 347.568 527.326 345.447 529.795 343.932C532.265 342.402 535.167 341.636 538.5 341.636C540.652 341.636 542.682 341.985 544.591 342.682C546.515 343.364 548.212 344.424 549.682 345.864C551.167 347.303 552.333 349.136 553.182 351.364C554.03 353.576 554.455 356.212 554.455 359.273V361.795H525.841V356.25H546.568C546.553 354.674 546.212 353.273 545.545 352.045C544.879 350.803 543.947 349.826 542.75 349.114C541.568 348.402 540.189 348.045 538.614 348.045C536.932 348.045 535.455 348.455 534.182 349.273C532.909 350.076 531.917 351.136 531.205 352.455C530.508 353.758 530.152 355.189 530.136 356.75V361.591C530.136 363.621 530.508 365.364 531.25 366.818C531.992 368.258 533.03 369.364 534.364 370.136C535.697 370.894 537.258 371.273 539.045 371.273C540.242 371.273 541.326 371.106 542.295 370.773C543.265 370.424 544.106 369.917 544.818 369.25C545.53 368.583 546.068 367.758 546.432 366.773L554.114 367.636C553.629 369.667 552.705 371.439 551.341 372.955C549.992 374.455 548.265 375.621 546.159 376.455C544.053 377.273 541.644 377.682 538.932 377.682ZM591.597 342.091L579.165 377H570.074L557.642 342.091H566.415L574.438 368.023H574.801L582.847 342.091H591.597ZM611.557 377.682C608.057 377.682 605.034 376.955 602.489 375.5C599.958 374.03 598.011 371.955 596.648 369.273C595.284 366.576 594.602 363.402 594.602 359.75C594.602 356.159 595.284 353.008 596.648 350.295C598.027 347.568 599.951 345.447 602.42 343.932C604.89 342.402 607.792 341.636 611.125 341.636C613.277 341.636 615.307 341.985 617.216 342.682C619.14 343.364 620.837 344.424 622.307 345.864C623.792 347.303 624.958 349.136 625.807 351.364C626.655 353.576 627.08 356.212 627.08 359.273V361.795H598.466V356.25H619.193C619.178 354.674 618.837 353.273 618.17 352.045C617.504 350.803 616.572 349.826 615.375 349.114C614.193 348.402 612.814 348.045 611.239 348.045C609.557 348.045 608.08 348.455 606.807 349.273C605.534 350.076 604.542 351.136 603.83 352.455C603.133 353.758 602.777 355.189 602.761 356.75V361.591C602.761 363.621 603.133 365.364 603.875 366.818C604.617 368.258 605.655 369.364 606.989 370.136C608.322 370.894 609.883 371.273 611.67 371.273C612.867 371.273 613.951 371.106 614.92 370.773C615.89 370.424 616.731 369.917 617.443 369.25C618.155 368.583 618.693 367.758 619.057 366.773L626.739 367.636C626.254 369.667 625.33 371.439 623.966 372.955C622.617 374.455 620.89 375.621 618.784 376.455C616.678 377.273 614.269 377.682 611.557 377.682ZM642.267 330.455V377H634.04V330.455H642.267Z" fill="#474747"/>
</g>
<defs>
<filter id="filter0_d_1_2" x="-4" y="0" width="808" height="623" filterUnits="userSpaceOnUse" color-interpolation-filters="sRGB">
<feFlood flood-opacity="0" result="BackgroundImageFix"/>
<feColorMatrix in="SourceAlpha" type="matrix" values="0 0 0 0 0 0 0 0 0 0 0 0 0 0 0 0 0 0 127 0" result="hardAlpha"/>
<feOffset dy="4"/>
<feGaussianBlur stdDeviation="2"/>
<feComposite in2="hardAlpha" operator="out"/>
<feColorMatrix type="matrix" values="0 0 0 0 0 0 0 0 0 0 0 0 0 0 0 0 0 0 0.25 0"/>
<feBlend mode="normal" in2="BackgroundImageFix" result="effect1_dropShadow_1_2"/>
<feBlend mode="normal" in="SourceGraphic" in2="effect1_dropShadow_1_2" result="shape"/>
</filter>
<clipPath id="clip0_1_2">
<rect width="800" height="615" fill="white"/>
</clipPath>
</defs>
</svg>
